# xmcd CD database file
#
# Track frame offsets:
#	150
#	27251
#	52895
#	80074
#	111119
#	129973
#	152523
#	180575
#	205934
#	232562
#	259400
#	288426
#	304701
#
# Disc length: 4446 seconds
#
# Revision: 0
# Processed by: cddbd v1.5.2PL0 Copyright (c) Steve Scherf et al.
# Submitted via: CDex 1.51
#
DISCID=a2115c0d
DTITLE=Inge Andersen Swingtet - More Swing!
DYEAR=2006
DGENRE=Jazz
TTITLE0=Exactly like you
TTITLE1=Recado Bossa Nova
TTITLE2=Honeysuckle Rose
TTITLE3=Yardbird Suite
TTITLE4=September in the rain
TTITLE5=Our love is here to stay
TTITLE6=On Wheels
TTITLE7=Loverman
TTITLE8=Softly, as in a morning sunrise
TTITLE9=The Preacher/Step Right up
TTITLE10=These foolish Things
TTITLE11=Bernies Tune
TTITLE12=Blues á la me
EXTD=YEAR: 2006
EXTT0=
EXTT1=
EXTT2=
EXTT3=
EXTT4=
EXTT5=
EXTT6=
EXTT7=
EXTT8=
EXTT9=
EXTT10=
EXTT11=
EXTT12=
PLAYORDER=
